PathFileType	4	(X/Y/Z)	/home/nbianco/projects/addbio/data/OpenCap2022/Processed/subject9//results/MarkerData/DJ3.trc
DataRate	CameraRate	NumFrames	NumMarkers	Units	OrigDataRate	OrigDataStartFrame	OrigNumFrames
100	100	8	51	m	100	16	131
Frame#	Time	C7			L.ASIS			L.PSIS			L_5meta			L_HJC			L_HJC_reg			L_Shoulder			L_Sternum			L_ankle			L_calc			L_elbow_lat			L_elbow_med			L_forearm			L_humerus			L_knee			L_sh2			L_sh3			L_shank_antsup			L_thigh1			L_thigh2			L_thigh3			L_thigh4			L_toe			L_wrist_radius			L_wrist_ulna			R_HJC			R_HJC_reg			R_Shoulder			R_Sternum			R_elbow_lat			R_elbow_med			R_forearm			R_humerus			R_wrist_radius			R_wrist_ulna			r.ASIS			r.PSIS			r_5meta			r_ankle			r_calc			r_knee			r_sh2			r_sh3			r_sh4			r_shank_antsup			r_thigh1			r_thigh2			r_thigh3			r_thigh4			r_thigh5			r_toe		
		X1	Y1	Z1	X2	Y2	Z2	X3	Y3	Z3	X4	Y4	Z4	X5	Y5	Z5	X6	Y6	Z6	X7	Y7	Z7	X8	Y8	Z8	X9	Y9	Z9	X10	Y10	Z10	X11	Y11	Z11	X12	Y12	Z12	X13	Y13	Z13	X14	Y14	Z14	X15	Y15	Z15	X16	Y16	Z16	X17	Y17	Z17	X18	Y18	Z18	X19	Y19	Z19	X20	Y20	Z20	X21	Y21	Z21	X22	Y22	Z22	X23	Y23	Z23	X24	Y24	Z24	X25	Y25	Z25	X26	Y26	Z26	X27	Y27	Z27	X28	Y28	Z28	X29	Y29	Z29	X30	Y30	Z30	X31	Y31	Z31	X32	Y32	Z32	X33	Y33	Z33	X34	Y34	Z34	X35	Y35	Z35	X36	Y36	Z36	X37	Y37	Z37	X38	Y38	Z38	X39	Y39	Z39	X40	Y40	Z40	X41	Y41	Z41	X42	Y42	Z42	X43	Y43	Z43	X44	Y44	Z44	X45	Y45	Z45	X46	Y46	Z46	X47	Y47	Z47	X48	Y48	Z48	X49	Y49	Z49	X50	Y50	Z50	X51	Y51	Z51

17	1.16	-0.170758	1.22213	-0.625179	-0.30223	0.722902	-0.729329	-0.488147	0.739267	-0.665599	-0.156152	0.0497647	-0.795626	-0.387324	0.613926	-0.711259	-0.366529	0.64421	-0.679318	-0.136087	1.13799	-0.788849	-0.0908257	1.08675	-0.648779	-0.248733	0.121665	-0.761754	-0.345223	0.0761262	-0.703703	-0.275303	0.83642	-0.938068	-0.298521	0.807825	-0.857825	-0.207683	0.795308	-0.951535	-0.187664	1.03515	-0.876956	-0.00382677	0.440799	-0.802689	-0.0899646	0.417315	-0.818345	-0.152939	0.312748	-0.807455	-0.0180139	0.363916	-0.817332	-0.210014	0.638486	-0.798813	-0.0790693	0.587161	-0.794512	-0.249505	0.539006	-0.825884	-0.123689	0.484756	-0.821831	-0.0920226	0.0711354	-0.733666	-0.0725697	0.688229	-0.942789	-0.096885	0.658813	-0.959623	-0.387022	0.608766	-0.504363	-0.363053	0.64388	-0.517939	-0.118116	1.14317	-0.461509	-0.08737	1.09107	-0.595163	-0.268356	0.852557	-0.306026	-0.295553	0.824912	-0.387134	-0.175496	0.704816	-0.284133	-0.159656	1.00201	-0.383805	-0.111103	0.642074	-0.290209	-0.150575	0.625679	-0.272529	-0.306673	0.724512	-0.484804	-0.485836	0.739048	-0.558287	-0.186511	0.0501288	-0.409307	-0.275582	0.125038	-0.464366	-0.374367	0.082258	-0.51282	-0.0128956	0.425559	-0.416538	-0.0861484	0.24435	-0.418886	-0.0415562	0.369731	-0.391104	-0.137893	0.30252	-0.385736	-0.00325272	0.32148	-0.434	-0.249966	0.633261	-0.419828	-0.150345	0.594131	-0.422467	-0.148079	0.532003	-0.391247	-0.290628	0.528963	-0.420052	-0.181193	0.492114	-0.410428	-0.12093	0.0696317	-0.470858
18	1.17	-0.163065	1.20712	-0.624531	-0.298554	0.709191	-0.730377	-0.484496	0.727154	-0.666943	-0.15589	0.0499025	-0.795475	-0.384575	0.600917	-0.711876	-0.363519	0.631126	-0.680206	-0.126906	1.124	-0.788197	-0.0832938	1.07165	-0.647835	-0.247492	0.12269	-0.761567	-0.344666	0.0771039	-0.703157	-0.254205	0.820304	-0.942576	-0.280067	0.790615	-0.862834	-0.185371	0.780422	-0.953933	-0.174386	1.02101	-0.877332	0.00447913	0.43789	-0.801327	-0.0830234	0.418948	-0.81297	-0.149639	0.316211	-0.805483	-0.0131162	0.362767	-0.816019	-0.206967	0.629639	-0.798397	-0.0748633	0.581749	-0.792533	-0.243425	0.529324	-0.825807	-0.116267	0.478447	-0.820938	-0.0913954	0.0706624	-0.733552	-0.0485613	0.675707	-0.942352	-0.07194	0.645999	-0.959926	-0.384677	0.5966	-0.50496	-0.360576	0.631495	-0.518737	-0.110214	1.12796	-0.461245	-0.0798503	1.07602	-0.594303	-0.245352	0.832124	-0.303646	-0.273225	0.803338	-0.384182	-0.145268	0.688681	-0.284088	-0.145783	0.986584	-0.382263	-0.0787065	0.628379	-0.292213	-0.116724	0.610816	-0.272788	-0.303594	0.711838	-0.485753	-0.482537	0.727401	-0.559392	-0.186402	0.0501145	-0.40922	-0.274891	0.125487	-0.464441	-0.374044	0.0829848	-0.512863	-0.00712321	0.421272	-0.415781	-0.0834629	0.24293	-0.417021	-0.0374059	0.368757	-0.3914	-0.134534	0.302181	-0.384328	0.000356752	0.318668	-0.43296	-0.247381	0.6236	-0.420156	-0.147641	0.585891	-0.422384	-0.144511	0.52452	-0.391368	-0.286612	0.51897	-0.420597	-0.176912	0.483772	-0.410856	-0.120707	0.0693405	-0.470856
19	1.18	-0.155686	1.1932	-0.623925	-0.29482	0.696834	-0.731304	-0.480779	0.716266	-0.668464	-0.155545	0.0502175	-0.795062	-0.381691	0.589222	-0.712625	-0.360504	0.619345	-0.681052	-0.118872	1.1115	-0.78725	-0.0759686	1.05781	-0.647162	-0.24611	0.124025	-0.760458	-0.343794	0.0785782	-0.701736	-0.235478	0.805886	-0.945742	-0.263171	0.775137	-0.8665	-0.165646	0.76729	-0.955169	-0.162603	1.00813	-0.877238	0.0110527	0.435217	-0.799757	-0.0771662	0.418791	-0.810086	-0.145838	0.317229	-0.803278	-0.00839254	0.361256	-0.814266	-0.204556	0.622102	-0.798019	-0.0712724	0.57737	-0.790689	-0.238068	0.521079	-0.825674	-0.109705	0.473349	-0.820526	-0.0907829	0.0702141	-0.733236	-0.0271306	0.664958	-0.941373	-0.0496057	0.634947	-0.959476	-0.38232	0.5855	-0.505698	-0.358017	0.620227	-0.51954	-0.103038	1.11395	-0.461053	-0.0726084	1.06222	-0.593366	-0.224191	0.813895	-0.302187	-0.252447	0.784046	-0.382141	-0.117089	0.675383	-0.284627	-0.132664	0.972368	-0.381135	-0.0485527	0.61751	-0.294761	-0.0851203	0.59874	-0.273881	-0.300556	0.700219	-0.486646	-0.479116	0.716856	-0.560467	-0.186184	0.0502385	-0.409194	-0.273941	0.12628	-0.464725	-0.373409	0.084375	-0.513212	-0.00190228	0.418268	-0.415183	-0.080887	0.241653	-0.415654	-0.0336287	0.367412	-0.391167	-0.131621	0.301925	-0.384527	0.0037723	0.316451	-0.431473	-0.245182	0.615532	-0.420669	-0.145211	0.579344	-0.422751	-0.141214	0.518834	-0.39073	-0.282892	0.510418	-0.421025	-0.172794	0.477087	-0.410649	-0.12026	0.0690211	-0.470873
20	1.19	-0.148571	1.1804	-0.623348	-0.290914	0.686306	-0.73197	-0.477089	0.706479	-0.670013	-0.155198	0.0507012	-0.794304	-0.37834	0.579053	-0.71358	-0.357305	0.609148	-0.681689	-0.11126	1.10012	-0.786404	-0.0687957	1.04512	-0.646751	-0.244681	0.125469	-0.758631	-0.342709	0.0803873	-0.699761	-0.219298	0.793071	-0.94771	-0.248007	0.761301	-0.868868	-0.148617	0.755783	-0.95545	-0.151986	0.996349	-0.876942	0.0160973	0.432288	-0.797877	-0.072098	0.416945	-0.809082	-0.141594	0.316021	-0.801009	-0.00370045	0.358987	-0.811917	-0.20216	0.615373	-0.79765	-0.0679042	0.573301	-0.789234	-0.233346	0.513664	-0.825246	-0.104059	0.46856	-0.819767	-0.0902261	0.0699187	-0.732727	-0.00846035	0.655937	-0.939846	-0.0299928	0.625605	-0.958391	-0.37966	0.575541	-0.506653	-0.355181	0.610465	-0.520312	-0.0964241	1.10098	-0.461074	-0.0656094	1.04951	-0.592604	-0.20522	0.797801	-0.301326	-0.233685	0.766868	-0.380748	-0.0916175	0.664536	-0.28576	-0.120581	0.959202	-0.380891	-0.0211079	0.609248	-0.297704	-0.0563821	0.589001	-0.275891	-0.297451	0.689878	-0.487544	-0.475664	0.707362	-0.561741	-0.185902	0.0504352	-0.409198	-0.272809	0.127405	-0.464959	-0.37249	0.0863995	-0.513765	0.00286558	0.415905	-0.414648	-0.0788517	0.240331	-0.415556	-0.0300296	0.365489	-0.390559	-0.129091	0.301453	-0.385676	0.00697346	0.314169	-0.430323	-0.243554	0.609107	-0.421341	-0.143057	0.574463	-0.423696	-0.138007	0.514667	-0.390533	-0.279359	0.503056	-0.421374	-0.168845	0.471995	-0.410122	-0.119682	0.0686851	-0.47084
21	1.2	-0.141637	1.16888	-0.622795	-0.286824	0.677733	-0.732417	-0.473464	0.697862	-0.671419	-0.154899	0.0512159	-0.793374	-0.374493	0.570496	-0.714753	-0.353739	0.600686	-0.682233	-0.103646	1.08954	-0.785805	-0.0617896	1.03357	-0.646512	-0.243327	0.126773	-0.756904	-0.341667	0.082187	-0.697986	-0.205521	0.781653	-0.948656	-0.234583	0.749128	-0.869962	-0.134055	0.745621	-0.955139	-0.142366	0.985661	-0.876752	0.0205669	0.429096	-0.795708	-0.0671738	0.414485	-0.808519	-0.137139	0.31399	-0.799019	0.00105601	0.356164	-0.808974	-0.199388	0.609174	-0.797137	-0.0645453	0.56915	-0.787995	-0.228919	0.506808	-0.824629	-0.099013	0.463763	-0.818399	-0.0896442	0.069791	-0.732115	0.00763481	0.648339	-0.937809	-0.0129667	0.617709	-0.956782	-0.376541	0.56685	-0.507834	-0.351961	0.602307	-0.521259	-0.0902166	1.08903	-0.461154	-0.0587465	1.03789	-0.592116	-0.18846	0.783556	-0.300887	-0.216928	0.751559	-0.38002	-0.0691295	0.655462	-0.287537	-0.10977	0.947137	-0.381429	0.00351164	0.603171	-0.301001	-0.0305551	0.581182	-0.278769	-0.294131	0.681014	-0.488621	-0.47227	0.69895	-0.563292	-0.18557	0.0506767	-0.409259	-0.27149	0.128867	-0.464963	-0.371327	0.0890584	-0.514399	0.00728191	0.413789	-0.413819	-0.0764572	0.239043	-0.415673	-0.0262878	0.36349	-0.38977	-0.125884	0.300828	-0.386051	0.0102196	0.311993	-0.429805	-0.24222	0.604012	-0.42231	-0.141105	0.570853	-0.424817	-0.134917	0.511747	-0.390804	-0.275937	0.496895	-0.421456	-0.165109	0.468178	-0.409489	-0.119014	0.0683414	-0.470697
22	1.21	-0.134765	1.15886	-0.622192	-0.282714	0.670772	-0.732896	-0.469881	0.69059	-0.672604	-0.154658	0.0515872	-0.792669	-0.370449	0.563411	-0.715932	-0.349892	0.593748	-0.682888	-0.0961764	1.07972	-0.785223	-0.0550208	1.02326	-0.646319	-0.242219	0.127732	-0.755894	-0.340922	0.0835916	-0.696964	-0.193808	0.7713	-0.948561	-0.222683	0.738473	-0.870197	-0.12161	0.736563	-0.954401	-0.133741	0.976067	-0.87664	0.0252814	0.425965	-0.793426	-0.0623225	0.412274	-0.807534	-0.132912	0.31214	-0.797446	0.00560993	0.353412	-0.80598	-0.196217	0.603569	-0.796566	-0.0610601	0.565034	-0.786686	-0.224522	0.500692	-0.824036	-0.094268	0.45911	-0.816675	-0.0890957	0.0696945	-0.731543	0.0215053	0.641786	-0.935395	0.00170467	0.610889	-0.954646	-0.373114	0.559609	-0.509023	-0.348452	0.595505	-0.522316	-0.0842403	1.07808	-0.461189	-0.0520521	1.02748	-0.591909	-0.173727	0.770859	-0.300922	-0.202036	0.738002	-0.379988	-0.0493854	0.647787	-0.289819	-0.100158	0.936163	-0.38233	0.0254354	0.598804	-0.304702	-0.00738537	0.575105	-0.282212	-0.290632	0.673764	-0.489729	-0.468916	0.691767	-0.564973	-0.185141	0.0509761	-0.409381	-0.269924	0.130629	-0.464838	-0.369969	0.0922813	-0.515044	0.0114254	0.412149	-0.412751	-0.073258	0.237955	-0.415314	-0.0223873	0.361615	-0.389046	-0.121857	0.300203	-0.38541	0.0136045	0.310428	-0.429615	-0.240747	0.599841	-0.423512	-0.139101	0.568031	-0.425719	-0.132007	0.509566	-0.391023	-0.27271	0.492081	-0.421042	-0.161569	0.465187	-0.408947	-0.118213	0.0680235	-0.470466
23	1.22	-0.127908	1.15043	-0.621512	-0.278748	0.664931	-0.733569	-0.466282	0.684742	-0.673679	-0.15447	0.0517294	-0.792457	-0.366551	0.557552	-0.716885	-0.346048	0.587981	-0.683679	-0.0890762	1.07091	-0.784522	-0.0485423	1.01436	-0.646117	-0.241462	0.128281	-0.755638	-0.340518	0.0844398	-0.696809	-0.183723	0.761812	-0.947426	-0.212124	0.729107	-0.870202	-0.110919	0.728495	-0.95326	-0.126084	0.967605	-0.876424	0.0302604	0.423065	-0.791375	-0.057963	0.410417	-0.806062	-0.129427	0.310676	-0.796173	0.00953546	0.351094	-0.803745	-0.19277	0.598794	-0.796043	-0.0573801	0.561309	-0.785122	-0.220064	0.495691	-0.823646	-0.0896714	0.454979	-0.815065	-0.0887432	0.069493	-0.731183	0.0334904	0.636006	-0.932721	0.0143116	0.604804	-0.952039	-0.369716	0.553895	-0.509981	-0.344926	0.589837	-0.523241	-0.0782789	1.06827	-0.461256	-0.045649	1.01843	-0.591931	-0.160818	0.759614	-0.301487	-0.188984	0.726164	-0.380422	-0.031934	0.641564	-0.292454	-0.0914953	0.92627	-0.383306	0.0448489	0.595843	-0.308777	0.0133164	0.570706	-0.285904	-0.287148	0.668075	-0.490623	-0.465532	0.685981	-0.566553	-0.184604	0.0513465	-0.409551	-0.268125	0.132526	-0.464906	-0.368454	0.0957738	-0.51569	0.0154512	0.411427	-0.411707	-0.0699955	0.237469	-0.414967	-0.0186605	0.360211	-0.388568	-0.118214	0.299707	-0.384726	0.0169831	0.30972	-0.429305	-0.238896	0.596433	-0.424558	-0.136758	0.565785	-0.426425	-0.129193	0.507725	-0.391022	-0.269695	0.488432	-0.420633	-0.158212	0.46275	-0.408469	-0.117295	0.0677748	-0.470219
24	1.23	-0.1212	1.14358	-0.620883	-0.274914	0.660001	-0.734329	-0.462596	0.6803	-0.674841	-0.154319	0.0517065	-0.792625	-0.362926	0.55281	-0.717633	-0.342333	0.583307	-0.684547	-0.082354	1.0635	-0.783861	-0.0423767	1.00704	-0.645954	-0.240996	0.128556	-0.755809	-0.340303	0.0849108	-0.697259	-0.174851	0.753359	-0.945729	-0.202688	0.721047	-0.869831	-0.101598	0.72134	-0.951819	-0.119274	0.960475	-0.876223	0.0348727	0.42027	-0.789764	-0.0543982	0.408687	-0.804453	-0.126773	0.309506	-0.795172	0.0126608	0.349078	-0.802386	-0.189114	0.595059	-0.795536	-0.0535557	0.55823	-0.783359	-0.215634	0.492047	-0.823507	-0.0852127	0.451695	-0.813874	-0.0885953	0.0692113	-0.731091	0.0439122	0.630825	-0.929857	0.0252047	0.599207	-0.949082	-0.366575	0.549606	-0.510729	-0.341634	0.58532	-0.524124	-0.0722131	1.05983	-0.461454	-0.0395943	1.01082	-0.592059	-0.149569	0.749919	-0.302612	-0.177603	0.716095	-0.381203	-0.0165066	0.636816	-0.295562	-0.0836198	0.917632	-0.384402	0.0618758	0.594197	-0.313097	0.0316123	0.567886	-0.289762	-0.283844	0.663735	-0.491435	-0.46213	0.681641	-0.567907	-0.184056	0.0517851	-0.409803	-0.266283	0.134359	-0.465328	-0.366857	0.0991601	-0.516364	0.0192903	0.411483	-0.410764	-0.067339	0.237786	-0.414973	-0.0154519	0.359836	-0.388152	-0.115742	0.299354	-0.384415	0.0201198	0.309678	-0.428763	-0.236615	0.59373	-0.425283	-0.134109	0.564118	-0.427059	-0.126426	0.506131	-0.390958	-0.266779	0.485569	-0.421026	-0.155091	0.460875	-0.407888	-0.116368	0.0676157	-0.469993
